<svg xmlns="http://www.w3.org/2000/svg" width="800" height="600" viewBox="0 0 800 600">
<defs><linearGradient id="sky" x1="0" y1="0" x2="0" y2="1"><stop offset="0" stop-color="#23332c"/><stop offset="0.55" stop-color="#3a604f"/><stop offset="1" stop-color="#87a893"/></linearGradient><filter id="soft"><feGaussianBlur stdDeviation="18"/></filter></defs>
<rect width="800" height="600" fill="url(#sky)"/>
<path d="M0 600L0 241L67 276L133 348L200 257L267 293L333 264L400 313L467 326L533 263L600 283L667 324L733 336L800 308L800 600Z" fill="#87a893"/>
<ellipse cx="740" cy="340" rx="560" ry="34" fill="#faf6f0" opacity="0.45" filter="url(#soft)"/>
<path d="M0 600L0 385L67 326L133 344L200 364L267 381L333 352L400 420L467 359L533 329L600 390L667 343L733 322L800 410L800 600Z" fill="#5d8069"/>
<ellipse cx="279" cy="410" rx="560" ry="34" fill="#faf6f0" opacity="0.45" filter="url(#soft)"/>
<path d="M0 600L0 427L67 414L133 451L200 408L267 476L333 402L400 438L467 402L533 396L600 465L667 411L733 464L800 396L800 600Z" fill="#33594a"/>
<ellipse cx="686" cy="480" rx="560" ry="34" fill="#faf6f0" opacity="0.45" filter="url(#soft)"/>
<path d="M0 600L0 529L67 505L133 526L200 527L267 539L333 512L400 486L467 528L533 535L600 479L667 534L733 515L800 482L800 600Z" fill="#1b4332"/>
<g transform="translate(543 418) scale(1.36)" fill="#1b4332"><path d="M0 0 24 38H15l10 21H17l9 16H-26l9-16h-8l10-21h-9Z"/><rect x="-2.5" y="75" width="5" height="14"/></g>
<g transform="translate(333 428) scale(1.10)" fill="#1b4332"><path d="M0 0 24 38H15l10 21H17l9 16H-26l9-16h-8l10-21h-9Z"/><rect x="-2.5" y="75" width="5" height="14"/></g>
<g transform="translate(335 427) scale(1.12)" fill="#1b4332"><path d="M0 0 24 38H15l10 21H17l9 16H-26l9-16h-8l10-21h-9Z"/><rect x="-2.5" y="75" width="5" height="14"/></g>
<g transform="translate(313 409) scale(1.58)" fill="#1b4332"><path d="M0 0 24 38H15l10 21H17l9 16H-26l9-16h-8l10-21h-9Z"/><rect x="-2.5" y="75" width="5" height="14"/></g>
<filter id="g"><feTurbulence type="fractalNoise" baseFrequency="0.8" numOctaves="2" stitchTiles="stitch"/><feColorMatrix type="saturate" values="0"/><feComponentTransfer><feFuncA type="linear" slope="0.06"/></feComponentTransfer><feComposite operator="in" in2="SourceGraphic"/></filter>
<rect width="800" height="600" filter="url(#g)"/>
</svg>