<svg xmlns="http://www.w3.org/2000/svg" width="800" height="600" viewBox="0 0 800 600">
<defs><linearGradient id="sky" x1="0" y1="0" x2="0" y2="1"><stop offset="0" stop-color="#2f5e3f"/><stop offset="0.55" stop-color="#4f7a5a"/><stop offset="1" stop-color="#a5c2ad"/></linearGradient><filter id="soft"><feGaussianBlur stdDeviation="18"/></filter></defs>
<rect width="800" height="600" fill="url(#sky)"/>
<circle cx="200" cy="250" r="121.00000000000001" fill="#faf6f0" opacity="0.14" filter="url(#soft)"/>
<circle cx="200" cy="250" r="55" fill="#faf6f0" opacity="0.55"/>
<path d="M0 600L0 241L67 247L133 263L200 315L267 255L333 292L400 261L467 308L533 250L600 243L667 348L733 262L800 261L800 600Z" fill="#6e937a"/>
<ellipse cx="223" cy="340" rx="560" ry="34" fill="#faf6f0" opacity="0.25" filter="url(#soft)"/>
<path d="M0 600L0 405L67 366L133 355L200 338L267 401L333 402L400 368L467 319L533 343L600 416L667 352L733 334L800 402L800 600Z" fill="#4a6f56"/>
<ellipse cx="623" cy="410" rx="560" ry="34" fill="#faf6f0" opacity="0.25" filter="url(#soft)"/>
<path d="M0 600L0 458L67 415L133 477L200 402L267 428L333 455L400 474L467 476L533 429L600 410L667 422L733 415L800 481L800 600Z" fill="#28503f"/>
<ellipse cx="132" cy="480" rx="560" ry="34" fill="#faf6f0" opacity="0.25" filter="url(#soft)"/>
<path d="M0 600L0 536L67 510L133 540L200 531L267 486L333 499L400 518L467 479L533 488L600 504L667 539L733 491L800 543L800 600Z" fill="#10291f"/>
<g transform="translate(673 415) scale(1.42)" fill="#10291f"><path d="M0 0 24 38H15l10 21H17l9 16H-26l9-16h-8l10-21h-9Z"/><rect x="-2.5" y="75" width="5" height="14"/></g>
<g transform="translate(464 433) scale(0.98)" fill="#10291f"><path d="M0 0 24 38H15l10 21H17l9 16H-26l9-16h-8l10-21h-9Z"/><rect x="-2.5" y="75" width="5" height="14"/></g>
<g transform="translate(166 430) scale(1.06)" fill="#10291f"><path d="M0 0 24 38H15l10 21H17l9 16H-26l9-16h-8l10-21h-9Z"/><rect x="-2.5" y="75" width="5" height="14"/></g>
<g transform="translate(368 411) scale(1.53)" fill="#10291f"><path d="M0 0 24 38H15l10 21H17l9 16H-26l9-16h-8l10-21h-9Z"/><rect x="-2.5" y="75" width="5" height="14"/></g>
<g transform="translate(94 415) scale(1.43)" fill="#10291f"><path d="M0 0 24 38H15l10 21H17l9 16H-26l9-16h-8l10-21h-9Z"/><rect x="-2.5" y="75" width="5" height="14"/></g>
<filter id="g"><feTurbulence type="fractalNoise" baseFrequency="0.8" numOctaves="2" stitchTiles="stitch"/><feColorMatrix type="saturate" values="0"/><feComponentTransfer><feFuncA type="linear" slope="0.06"/></feComponentTransfer><feComposite operator="in" in2="SourceGraphic"/></filter>
<rect width="800" height="600" filter="url(#g)"/>
</svg>