<svg xmlns="http://www.w3.org/2000/svg" width="800" height="600" viewBox="0 0 800 600">
<defs><linearGradient id="sky" x1="0" y1="0" x2="0" y2="1"><stop offset="0" stop-color="#7a3d17"/><stop offset="0.55" stop-color="#c05621"/><stop offset="1" stop-color="#e8a06a"/></linearGradient><filter id="soft"><feGaussianBlur stdDeviation="18"/></filter></defs>
<rect width="800" height="600" fill="url(#sky)"/>
<circle cx="560" cy="310" r="187.00000000000003" fill="#f5c78e" opacity="0.21" filter="url(#soft)"/>
<circle cx="560" cy="310" r="85" fill="#f5c78e" opacity="0.85"/>
<path d="M0 600L0 241L67 338L133 298L200 254L267 336L333 321L400 328L467 290L533 357L600 323L667 252L733 308L800 333L800 600Z" fill="#8a4a20"/>
<ellipse cx="506" cy="340" rx="560" ry="34" fill="#faf6f0" opacity="0.12" filter="url(#soft)"/>
<path d="M0 600L0 320L67 406L133 365L200 416L267 421L333 349L400 419L467 383L533 356L600 338L667 360L733 346L800 394L800 600Z" fill="#5e3418"/>
<ellipse cx="168" cy="410" rx="560" ry="34" fill="#faf6f0" opacity="0.12" filter="url(#soft)"/>
<path d="M0 600L0 401L67 417L133 416L200 484L267 469L333 420L400 421L467 462L533 461L600 442L667 434L733 453L800 478L800 600Z" fill="#33241a"/>
<ellipse cx="378" cy="480" rx="560" ry="34" fill="#faf6f0" opacity="0.12" filter="url(#soft)"/>
<path d="M0 600L0 543L67 516L133 482L200 534L267 506L333 485L400 479L467 503L533 513L600 528L667 544L733 539L800 532L800 600Z" fill="#1c1c1e"/>
<g transform="translate(124 413) scale(1.49)" fill="#1c1c1e"><path d="M0 0 24 38H15l10 21H17l9 16H-26l9-16h-8l10-21h-9Z"/><rect x="-2.5" y="75" width="5" height="14"/></g>
<g transform="translate(596 437) scale(0.87)" fill="#1c1c1e"><path d="M0 0 24 38H15l10 21H17l9 16H-26l9-16h-8l10-21h-9Z"/><rect x="-2.5" y="75" width="5" height="14"/></g>
<g transform="translate(677 432) scale(1.01)" fill="#1c1c1e"><path d="M0 0 24 38H15l10 21H17l9 16H-26l9-16h-8l10-21h-9Z"/><rect x="-2.5" y="75" width="5" height="14"/></g>
<g transform="translate(422 413) scale(1.48)" fill="#1c1c1e"><path d="M0 0 24 38H15l10 21H17l9 16H-26l9-16h-8l10-21h-9Z"/><rect x="-2.5" y="75" width="5" height="14"/></g>
<g transform="translate(573 418) scale(1.35)" fill="#1c1c1e"><path d="M0 0 24 38H15l10 21H17l9 16H-26l9-16h-8l10-21h-9Z"/><rect x="-2.5" y="75" width="5" height="14"/></g>
<filter id="g"><feTurbulence type="fractalNoise" baseFrequency="0.8" numOctaves="2" stitchTiles="stitch"/><feColorMatrix type="saturate" values="0"/><feComponentTransfer><feFuncA type="linear" slope="0.06"/></feComponentTransfer><feComposite operator="in" in2="SourceGraphic"/></filter>
<rect width="800" height="600" filter="url(#g)"/>
</svg>