<svg xmlns="http://www.w3.org/2000/svg" width="800" height="600" viewBox="0 0 800 600">
<defs><linearGradient id="sky" x1="0" y1="0" x2="0" y2="1"><stop offset="0" stop-color="#0d0d10"/><stop offset="0.55" stop-color="#16211c"/><stop offset="1" stop-color="#28503f"/></linearGradient><filter id="soft"><feGaussianBlur stdDeviation="18"/></filter></defs>
<rect width="800" height="600" fill="url(#sky)"/>
<circle cx="9" cy="172" r="1.4" fill="#faf6f0" opacity="0.66"/>
<circle cx="385" cy="275" r="0.7" fill="#faf6f0" opacity="0.46"/>
<circle cx="691" cy="106" r="0.7" fill="#faf6f0" opacity="0.87"/>
<circle cx="304" cy="296" r="0.6" fill="#faf6f0" opacity="0.43"/>
<circle cx="444" cy="206" r="0.6" fill="#faf6f0" opacity="0.77"/>
<circle cx="376" cy="72" r="1.0" fill="#faf6f0" opacity="0.57"/>
<circle cx="384" cy="113" r="1.2" fill="#faf6f0" opacity="0.68"/>
<circle cx="326" cy="76" r="1.0" fill="#faf6f0" opacity="0.86"/>
<circle cx="228" cy="264" r="1.3" fill="#faf6f0" opacity="0.65"/>
<circle cx="82" cy="269" r="1.1" fill="#faf6f0" opacity="0.35"/>
<circle cx="712" cy="234" r="0.4" fill="#faf6f0" opacity="0.69"/>
<circle cx="246" cy="266" r="1.3" fill="#faf6f0" opacity="0.88"/>
<circle cx="417" cy="222" r="1.6" fill="#faf6f0" opacity="0.36"/>
<circle cx="25" cy="171" r="1.2" fill="#faf6f0" opacity="0.37"/>
<circle cx="229" cy="284" r="1.7" fill="#faf6f0" opacity="0.34"/>
<circle cx="527" cy="83" r="1.2" fill="#faf6f0" opacity="0.79"/>
<circle cx="367" cy="192" r="0.9" fill="#faf6f0" opacity="0.86"/>
<circle cx="397" cy="109" r="1.7" fill="#faf6f0" opacity="0.41"/>
<circle cx="472" cy="114" r="0.7" fill="#faf6f0" opacity="0.69"/>
<circle cx="64" cy="155" r="1.7" fill="#faf6f0" opacity="0.33"/>
<circle cx="8" cy="2" r="0.3" fill="#faf6f0" opacity="0.65"/>
<circle cx="102" cy="242" r="1.5" fill="#faf6f0" opacity="0.82"/>
<circle cx="198" cy="101" r="1.2" fill="#faf6f0" opacity="0.40"/>
<circle cx="167" cy="127" r="1.0" fill="#faf6f0" opacity="0.43"/>
<circle cx="774" cy="5" r="1.4" fill="#faf6f0" opacity="0.64"/>
<circle cx="622" cy="141" r="1.2" fill="#faf6f0" opacity="0.61"/>
<circle cx="291" cy="137" r="1.3" fill="#faf6f0" opacity="0.83"/>
<circle cx="653" cy="267" r="0.4" fill="#faf6f0" opacity="0.68"/>
<circle cx="610" cy="103" r="0.7" fill="#faf6f0" opacity="0.75"/>
<circle cx="606" cy="90" r="0.3" fill="#faf6f0" opacity="0.32"/>
<circle cx="236" cy="39" r="0.5" fill="#faf6f0" opacity="0.32"/>
<circle cx="243" cy="69" r="1.4" fill="#faf6f0" opacity="0.90"/>
<circle cx="67" cy="223" r="0.5" fill="#faf6f0" opacity="0.33"/>
<circle cx="532" cy="213" r="1.0" fill="#faf6f0" opacity="0.40"/>
<circle cx="512" cy="233" r="0.3" fill="#faf6f0" opacity="0.70"/>
<circle cx="57" cy="32" r="1.6" fill="#faf6f0" opacity="0.68"/>
<circle cx="662" cy="110" r="1.5" fill="#faf6f0" opacity="0.35"/>
<circle cx="761" cy="17" r="0.4" fill="#faf6f0" opacity="0.30"/>
<circle cx="745" cy="79" r="0.5" fill="#faf6f0" opacity="0.56"/>
<circle cx="701" cy="282" r="1.5" fill="#faf6f0" opacity="0.70"/>
<circle cx="3" cy="86" r="0.8" fill="#faf6f0" opacity="0.37"/>
<circle cx="308" cy="157" r="1.7" fill="#faf6f0" opacity="0.38"/>
<circle cx="89" cy="154" r="0.4" fill="#faf6f0" opacity="0.47"/>
<circle cx="750" cy="39" r="1.2" fill="#faf6f0" opacity="0.35"/>
<circle cx="195" cy="160" r="0.3" fill="#faf6f0" opacity="0.88"/>
<circle cx="112" cy="238" r="1.4" fill="#faf6f0" opacity="0.40"/>
<circle cx="388" cy="229" r="0.7" fill="#faf6f0" opacity="0.65"/>
<circle cx="139" cy="262" r="0.5" fill="#faf6f0" opacity="0.46"/>
<circle cx="277" cy="233" r="0.5" fill="#faf6f0" opacity="0.66"/>
<circle cx="398" cy="72" r="1.4" fill="#faf6f0" opacity="0.71"/>
<circle cx="244" cy="199" r="0.5" fill="#faf6f0" opacity="0.74"/>
<circle cx="450" cy="171" r="1.6" fill="#faf6f0" opacity="0.32"/>
<circle cx="453" cy="201" r="1.0" fill="#faf6f0" opacity="0.70"/>
<circle cx="619" cy="267" r="1.1" fill="#faf6f0" opacity="0.49"/>
<circle cx="320" cy="201" r="1.0" fill="#faf6f0" opacity="0.60"/>
<circle cx="649" cy="205" r="0.4" fill="#faf6f0" opacity="0.59"/>
<circle cx="184" cy="196" r="1.3" fill="#faf6f0" opacity="0.71"/>
<circle cx="786" cy="86" r="1.5" fill="#faf6f0" opacity="0.51"/>
<circle cx="0" cy="61" r="0.4" fill="#faf6f0" opacity="0.44"/>
<circle cx="127" cy="24" r="0.6" fill="#faf6f0" opacity="0.51"/>
<circle cx="180" cy="130" r="74.80000000000001" fill="#faf6f0" opacity="0.24" filter="url(#soft)"/>
<circle cx="180" cy="130" r="34" fill="#faf6f0" opacity="0.95"/>
<path d="M0 600L0 303L67 281L133 352L200 316L267 341L333 311L400 333L467 264L533 254L600 299L667 339L733 266L800 290L800 600Z" fill="#22362c"/>
<ellipse cx="433" cy="340" rx="560" ry="34" fill="#faf6f0" opacity="0.1" filter="url(#soft)"/>
<path d="M0 600L0 320L67 401L133 349L200 382L267 412L333 417L400 420L467 344L533 342L600 365L667 364L733 406L800 404L800 600Z" fill="#182a21"/>
<ellipse cx="322" cy="410" rx="560" ry="34" fill="#faf6f0" opacity="0.1" filter="url(#soft)"/>
<path d="M0 600L0 441L67 456L133 449L200 413L267 406L333 455L400 460L467 417L533 421L600 396L667 429L733 452L800 416L800 600Z" fill="#122019"/>
<ellipse cx="566" cy="480" rx="560" ry="34" fill="#faf6f0" opacity="0.1" filter="url(#soft)"/>
<path d="M0 600L0 492L67 527L133 528L200 530L267 503L333 519L400 489L467 511L533 528L600 541L667 492L733 542L800 491L800 600Z" fill="#0b1611"/>
<g transform="translate(429 408) scale(1.59)" fill="#0b1611"><path d="M0 0 24 38H15l10 21H17l9 16H-26l9-16h-8l10-21h-9Z"/><rect x="-2.5" y="75" width="5" height="14"/></g>
<g transform="translate(100 439) scale(0.83)" fill="#0b1611"><path d="M0 0 24 38H15l10 21H17l9 16H-26l9-16h-8l10-21h-9Z"/><rect x="-2.5" y="75" width="5" height="14"/></g>
<g transform="translate(322 441) scale(0.77)" fill="#0b1611"><path d="M0 0 24 38H15l10 21H17l9 16H-26l9-16h-8l10-21h-9Z"/><rect x="-2.5" y="75" width="5" height="14"/></g>
<filter id="g"><feTurbulence type="fractalNoise" baseFrequency="0.8" numOctaves="2" stitchTiles="stitch"/><feColorMatrix type="saturate" values="0"/><feComponentTransfer><feFuncA type="linear" slope="0.06"/></feComponentTransfer><feComposite operator="in" in2="SourceGraphic"/></filter>
<rect width="800" height="600" filter="url(#g)"/>
</svg>