<svg xmlns="http://www.w3.org/2000/svg" width="800" height="600" viewBox="0 0 800 600">
<defs><linearGradient id="sky" x1="0" y1="0" x2="0" y2="1"><stop offset="0" stop-color="#9c3f12"/><stop offset="0.55" stop-color="#d9a441"/><stop offset="1" stop-color="#f2dba8"/></linearGradient><filter id="soft"><feGaussianBlur stdDeviation="18"/></filter></defs>
<rect width="800" height="600" fill="url(#sky)"/>
<circle cx="400" cy="240" r="158.4" fill="#faf6f0" opacity="0.15" filter="url(#soft)"/>
<circle cx="400" cy="240" r="72" fill="#faf6f0" opacity="0.6"/>
<path d="M0 600L0 241L67 280L133 249L200 251L267 259L333 259L400 343L467 254L533 331L600 242L667 300L733 280L800 358L800 600Z" fill="#b07a35"/>
<ellipse cx="272" cy="340" rx="560" ry="34" fill="#faf6f0" opacity="0.2" filter="url(#soft)"/>
<path d="M0 600L0 359L67 381L133 386L200 363L267 357L333 345L400 419L467 407L533 384L600 391L667 376L733 369L800 377L800 600Z" fill="#7a5423"/>
<ellipse cx="56" cy="410" rx="560" ry="34" fill="#faf6f0" opacity="0.2" filter="url(#soft)"/>
<path d="M0 600L0 463L67 420L133 469L200 472L267 461L333 439L400 403L467 434L533 437L600 420L667 457L733 442L800 471L800 600Z" fill="#463a1f"/>
<ellipse cx="70" cy="480" rx="560" ry="34" fill="#faf6f0" opacity="0.2" filter="url(#soft)"/>
<path d="M0 600L0 485L67 527L133 510L200 542L267 544L333 531L400 544L467 479L533 492L600 505L667 481L733 491L800 511L800 600Z" fill="#241f14"/>
<g transform="translate(385 443) scale(0.72)" fill="#241f14"><path d="M0 0 24 38H15l10 21H17l9 16H-26l9-16h-8l10-21h-9Z"/><rect x="-2.5" y="75" width="5" height="14"/></g>
<g transform="translate(178 410) scale(1.54)" fill="#241f14"><path d="M0 0 24 38H15l10 21H17l9 16H-26l9-16h-8l10-21h-9Z"/><rect x="-2.5" y="75" width="5" height="14"/></g>
<g transform="translate(339 436) scale(0.89)" fill="#241f14"><path d="M0 0 24 38H15l10 21H17l9 16H-26l9-16h-8l10-21h-9Z"/><rect x="-2.5" y="75" width="5" height="14"/></g>
<filter id="g"><feTurbulence type="fractalNoise" baseFrequency="0.8" numOctaves="2" stitchTiles="stitch"/><feColorMatrix type="saturate" values="0"/><feComponentTransfer><feFuncA type="linear" slope="0.06"/></feComponentTransfer><feComposite operator="in" in2="SourceGraphic"/></filter>
<rect width="800" height="600" filter="url(#g)"/>
</svg>